<?xml version="1.0" standalone="no"?>
<!DOCTYPE svg PUBLIC "-//W3C//DTD SVG 20010904//EN"
 "http://www.w3.org/TR/2001/REC-SVG-20010904/DTD/svg10.dtd">
<svg version="1.0" xmlns="http://www.w3.org/2000/svg"
 width="629.000000pt" height="629.000000pt" viewBox="0 0 629.000000 629.000000"
 preserveAspectRatio="xMidYMid meet">
<metadata>
Created by potrace 1.14, written by Peter Selinger 2001-2017
</metadata>
<g transform="translate(0.000000,629.000000) scale(0.100000,-0.100000)"
fill="#000000" stroke="none">
<path d="M3104 6136 c-4 -10 -20 -15 -52 -14 -26 1 -62 -2 -80 -6 -22 -5 -38
-3 -49 6 -12 9 -15 9 -9 1 4 -8 1 -13 -9 -13 -9 0 -14 3 -12 8 3 4 -13 7 -34
7 -24 0 -38 -4 -35 -10 2 -7 -7 -10 -26 -7 -17 3 -28 1 -25 -4 3 -5 -10 -9
-29 -8 -19 1 -37 -3 -40 -8 -4 -7 -9 -7 -13 0 -6 10 -19 9 -91 -9 -8 -2 -18
-8 -22 -14 -5 -6 -8 -6 -8 1 0 10 -51 12 -70 4 -3 -1 -8 -2 -12 -1 -5 0 -8 -7
-9 -16 0 -15 -2 -15 -9 2 -7 16 -9 16 -9 4 -1 -9 -8 -20 -17 -23 -15 -6 -15
-4 -3 11 13 15 12 16 -6 9 -11 -4 -29 -10 -40 -12 -104 -21 -195 -46 -200 -55
-3 -4 -12 -6 -20 -2 -10 3 -15 -1 -16 -13 0 -11 -3 -14 -6 -6 -2 6 -9 12 -14
12 -6 0 -8 -3 -6 -7 3 -5 -9 -9 -26 -9 -16 -1 -35 -8 -41 -16 -6 -8 -16 -13
-22 -11 -28 10 -411 -172 -468 -222 -16 -14 -32 -25 -35 -26 -30 -4 -54 -18
-157 -94 -134 -99 -220 -170 -311 -259 -35 -33 -63 -57 -63 -53 0 4 -20 -15
-45 -43 -25 -28 -59 -64 -75 -80 -17 -16 -30 -34 -30 -40 0 -5 -3 -9 -7 -8 -5
2 -9 -1 -10 -5 -1 -5 -14 -21 -30 -35 -41 -39 -89 -103 -98 -132 -4 -14 -16
-34 -26 -45 -32 -34 -64 -78 -94 -130 -17 -27 -34 -58 -40 -67 -24 -40 -87
-168 -87 -175 0 -4 -9 -20 -19 -34 -49 -69 -166 -398 -218 -610 -49 -202 -60
-276 -41 -264 6 3 10 -4 10 -17 0 -18 -2 -20 -10 -8 -5 8 -10 10 -10 5 0 -6 6
-17 13 -24 6 -8 7 -11 2 -8 -7 3 -11 -9 -11 -31 0 -93 -8 -182 -16 -182 -4 0
-8 -8 -8 -17 0 -16 2 -16 10 -3 8 11 9 8 4 -13 -13 -54 -6 -347 11 -447 2 -14
6 -43 9 -65 67 -515 261 -986 571 -1390 92 -120 91 -119 227 -259 156 -161
148 -153 116 -130 -15 10 -28 22 -28 27 0 4 -4 7 -10 7 -6 0 -6 -9 1 -26 9
-26 7 -25 -38 12 -26 21 -64 53 -83 70 -19 18 -51 44 -70 60 -31 24 -30 22 10
-22 25 -27 85 -89 134 -137 48 -49 86 -91 83 -94 -5 -4 -74 44 -97 67 -3 3
-14 12 -25 20 -14 10 -13 6 5 -14 14 -16 41 -38 60 -51 19 -12 51 -37 70 -55
35 -33 149 -110 335 -224 52 -32 93 -62 90 -67 -3 -4 12 -13 34 -19 22 -6 43
-15 46 -21 22 -35 305 -127 305 -99 0 6 -5 10 -11 10 -5 0 -7 4 -4 10 4 6 17
4 35 -5 39 -20 128 -52 169 -60 41 -9 35 8 -12 30 -18 9 -23 13 -12 9 155 -45
228 -64 265 -70 25 -4 52 -10 60 -14 8 -4 44 -11 79 -14 35 -3 67 -8 71 -11 5
-3 11 -1 15 5 4 6 11 8 16 4 20 -12 369 -16 398 -4 16 6 50 13 76 14 27 1 50
8 55 17 10 15 -37 28 -277 80 -103 22 -143 42 -57 29 62 -10 325 -3 336 8 5 5
-10 12 -39 15 -26 4 -63 9 -81 11 -18 3 -52 8 -75 11 -23 3 -78 12 -122 20
-44 8 -111 17 -149 21 -156 15 -492 150 -786 315 -69 38 -268 171 -295 196
-11 10 -33 26 -48 36 -15 10 -25 22 -22 27 3 6 -1 7 -9 4 -9 -4 -16 -1 -16 6
0 12 -48 55 -61 55 -4 0 -11 4 -16 9 -5 5 -2 6 7 1 8 -4 5 2 -7 14 -12 11 -27
21 -33 21 -6 0 -10 3 -8 8 4 7 -69 82 -75 76 -1 -2 -16 13 -32 34 -17 20 -50
59 -75 87 -25 27 -59 68 -75 90 -16 22 -32 42 -36 45 -3 3 -22 30 -42 60 -19
31 -42 62 -51 69 -9 7 -16 18 -16 23 0 6 -14 31 -32 57 -34 50 -148 270 -190
366 -42 97 -87 239 -86 271 0 16 -9 68 -21 116 -12 49 -20 91 -17 96 2 4 0 29
-5 55 -5 26 -11 69 -14 95 -3 26 -8 63 -11 82 -6 42 -5 443 2 485 2 17 7 55
10 85 3 30 9 60 14 65 4 6 10 31 14 56 9 60 16 99 31 164 14 60 87 291 107
335 65 147 88 194 135 279 29 51 53 95 53 97 0 6 169 244 182 258 7 7 36 39
63 71 73 85 292 300 255 250 -8 -11 11 6 42 38 31 31 64 57 73 57 8 0 61 31
118 69 151 101 426 238 512 255 22 4 78 21 221 66 114 36 214 54 364 67 115 9
380 8 405 -2 17 -7 18 -6 8 6 -11 13 -8 15 17 11 17 -2 30 -8 30 -12 0 -14 41
-19 46 -5 3 8 12 11 19 9 7 -3 16 0 20 6 4 7 -4 10 -22 9 -15 -1 -44 2 -63 6
-19 4 -40 8 -47 8 -7 0 -10 4 -7 8 2 5 16 4 29 -1 17 -7 25 -6 25 1 0 8 4 8
13 1 7 -6 22 -9 32 -8 11 2 30 -2 41 -9 17 -11 24 -11 35 -2 11 10 11 9 1 -5
-9 -11 -10 -18 -2 -23 20 -12 10 -24 -27 -32 l-38 -8 50 -5 c34 -3 53 -1 58 8
10 15 -1 35 -14 27 -5 -4 -9 -1 -9 4 0 6 5 11 11 11 5 0 8 4 5 9 -5 8 7 8 84
-3 57 -8 142 -25 180 -37 132 -41 309 -109 389 -150 52 -26 99 -45 104 -42 6
4 7 1 2 -7 -6 -10 -4 -12 11 -6 10 4 15 4 11 0 -7 -7 95 -74 114 -74 5 0 9 -5
9 -11 0 -5 4 -8 9 -4 5 3 12 1 16 -5 4 -6 11 -7 17 -4 6 4 8 2 4 -4 -6 -10 62
-59 77 -54 5 1 6 -2 3 -7 -8 -12 22 -23 37 -14 7 3 9 3 5 -2 -10 -11 20 -38
33 -29 7 4 9 3 6 -3 -8 -12 98 -103 120 -103 8 0 12 -4 9 -9 -3 -5 4 -11 15
-14 12 -3 18 -10 14 -16 -3 -6 1 -11 9 -11 9 0 16 -7 16 -15 0 -8 5 -15 10
-15 14 0 60 -46 60 -59 0 -5 9 -13 20 -16 11 -4 18 -10 16 -14 -3 -4 13 -25
35 -46 29 -27 37 -40 28 -46 -10 -6 -9 -12 4 -27 9 -10 17 -24 17 -30 0 -7 3
-12 8 -12 4 0 26 -33 50 -74 24 -41 54 -84 68 -97 28 -26 31 -19 8 16 -18 27
-13 55 9 51 7 -1 28 -17 45 -36 17 -19 32 -30 32 -24 0 5 -9 20 -20 32 -11 12
-20 24 -20 27 0 3 -4 11 -10 18 -54 65 -80 100 -80 105 0 4 -27 36 -60 72 -85
93 -82 90 -70 90 6 0 8 5 4 12 -4 7 -3 8 5 4 6 -4 9 -11 7 -15 -6 -10 11 -36
24 -36 5 0 10 -4 9 -9 -1 -4 16 -27 38 -50 22 -22 51 -59 66 -81 38 -57 80
-104 73 -82 -4 12 -2 16 5 11 7 -4 10 -1 7 7 -3 8 -11 13 -17 11 -7 -1 -10 2
-6 8 3 5 1 10 -5 10 -6 0 -8 5 -5 10 3 6 -1 13 -9 16 -9 3 -16 12 -16 18 0 7
-9 22 -20 34 -12 12 -16 22 -11 22 6 0 31 -29 56 -65 40 -56 45 -67 35 -86
-10 -17 -9 -24 5 -38 15 -15 16 -14 11 11 -3 21 -1 26 11 21 12 -5 12 -7 1
-14 -8 -6 -9 -9 -2 -9 7 0 15 -7 18 -16 3 -8 2 -13 -2 -10 -4 2 -8 -4 -8 -14
0 -17 2 -18 16 -5 19 17 30 10 30 -17 0 -10 5 -18 10 -18 6 0 10 -6 10 -14 0
-7 10 -21 23 -30 14 -10 16 -14 4 -10 -13 5 -16 2 -11 -10 3 -9 9 -16 13 -16
12 0 31 -48 31 -75 0 -14 5 -25 10 -25 6 0 10 -6 10 -13 0 -7 7 -22 16 -33 8
-10 12 -12 8 -4 -5 10 -4 12 3 5 5 -5 20 -36 33 -67 14 -36 27 -55 34 -51 7 3
6 1 -1 -7 -15 -16 -13 -19 -43 47 -13 29 -26 51 -28 48 -8 -8 20 -85 30 -85 5
0 7 -4 4 -9 -7 -11 25 -105 58 -171 14 -28 21 -48 16 -45 -6 3 -10 1 -10 -4 0
-6 -5 -11 -11 -11 -6 0 -9 6 -6 13 3 8 1 20 -5 28 -11 17 0 -88 13 -112 4 -9
9 -33 11 -53 1 -20 7 -36 13 -36 14 0 11 83 -4 88 -6 2 -11 19 -11 38 0 41 20
46 40 9 7 -13 17 -22 21 -19 4 2 11 -1 15 -7 4 -7 3 -9 -3 -6 -7 4 -10 -4 -8
-21 2 -33 13 -54 24 -48 4 3 8 -1 8 -9 0 -8 -5 -11 -10 -8 -6 4 -8 -3 -4 -18
4 -13 7 -28 7 -32 0 -5 4 -6 9 -3 9 6 16 -16 26 -89 4 -29 2 -36 -5 -25 -7 11
-9 -3 -7 -47 2 -61 11 -81 20 -45 3 9 4 1 3 -18 -2 -19 2 -41 8 -49 6 -9 7
-13 1 -10 -12 7 -47 -28 -36 -36 5 -2 12 2 15 11 3 8 11 12 17 8 8 -4 7 -9 -2
-15 -9 -5 -9 -9 -3 -9 7 0 11 -19 11 -49 -1 -30 -6 -47 -12 -44 -5 3 -4 0 3
-8 6 -7 12 -21 12 -32 0 -12 -4 -16 -12 -11 -10 6 -10 5 -2 -7 24 -29 8 -109
-16 -82 -3 4 2 3 10 -2 12 -6 13 -5 3 6 -16 16 -17 33 -1 23 7 -4 8 -3 4 5
-13 20 -26 1 -21 -30 3 -16 1 -29 -5 -29 -5 0 -10 -4 -10 -8 0 -5 7 -9 15 -9
8 0 12 3 10 7 -2 4 2 7 10 7 10 0 11 -6 4 -24 -4 -12 -6 -30 -3 -38 4 -8 1
-15 -6 -15 -8 0 -11 9 -8 25 6 31 0 33 -11 3 -9 -24 7 -50 24 -40 6 3 5 -1 -1
-9 -6 -8 -10 -24 -9 -36 1 -13 -1 -23 -5 -23 -4 0 -6 -11 -5 -25 2 -14 -2 -25
-8 -25 -7 0 -5 -5 3 -10 8 -5 11 -10 5 -10 -5 0 -10 -10 -11 -22 -1 -37 -13
-98 -36 -178 -11 -41 -22 -82 -23 -90 -2 -8 -4 -15 -5 -15 -1 0 -3 -13 -5 -30
-1 -16 -5 -37 -7 -45 -19 -65 -32 -99 -37 -96 -3 2 -7 -7 -7 -19 -2 -26 -72
-176 -113 -240 -14 -22 -34 -57 -44 -77 -11 -21 -23 -38 -28 -38 -5 0 -9 -6
-9 -14 0 -7 -10 -26 -22 -42 l-23 -29 26 20 c15 11 30 27 35 37 5 9 32 54 60
100 56 91 156 278 149 278 -2 0 9 26 24 57 24 48 57 145 61 175 0 4 7 23 15
42 19 44 65 253 68 304 0 6 4 12 9 12 5 0 7 -8 4 -17 -2 -10 -8 -38 -11 -63
-4 -25 -9 -54 -12 -65 -2 -11 -6 -31 -9 -45 -10 -57 -78 -285 -106 -357 -16
-43 -30 -82 -32 -88 -7 -25 -30 -65 -38 -65 -4 0 -7 -4 -5 -8 3 -11 -36 -82
-45 -82 -4 0 -5 -7 -2 -15 4 -8 -1 -17 -10 -21 -9 -3 -13 -10 -10 -15 3 -5 0
-9 -5 -9 -6 0 -10 -3 -9 -8 3 -8 -32 -64 -47 -74 -5 -4 -6 -8 -2 -8 9 0 -72
-113 -85 -118 -4 -2 -8 -9 -8 -16 0 -7 -11 -23 -25 -36 -14 -13 -23 -25 -21
-27 2 -3 -8 -17 -22 -32 -48 -50 -77 -86 -75 -93 2 -4 -5 -9 -15 -12 -9 -3
-25 -20 -34 -37 -10 -16 -21 -28 -25 -26 -10 6 -34 -19 -27 -26 3 -3 -4 -8
-15 -12 -12 -4 -18 -11 -15 -17 5 -7 1 -9 -9 -5 -10 4 -16 2 -14 -6 1 -7 -4
-11 -10 -10 -7 2 -12 -3 -10 -10 1 -6 -4 -11 -10 -10 -7 2 -12 -3 -10 -10 1
-6 -6 -11 -15 -11 -10 1 -16 -2 -13 -6 5 -8 -40 -50 -55 -50 -5 0 -13 -6 -17
-13 -13 -23 -174 -136 -253 -178 -25 -13 -47 -27 -50 -30 -10 -12 -110 -59
-125 -59 -9 0 -14 -4 -10 -9 3 -5 -11 -15 -31 -21 -19 -7 -33 -14 -31 -16 4
-4 44 9 112 36 287 114 612 353 813 597 28 34 48 50 58 46 11 -4 12 -9 3 -19
-6 -8 -15 -12 -19 -9 -4 3 -13 -2 -20 -10 -11 -13 -10 -14 5 -8 18 6 18 6 1
-13 -9 -10 -36 -44 -59 -74 -23 -30 -52 -65 -64 -77 -13 -12 -23 -25 -23 -28
0 -11 -237 -240 -295 -283 -33 -25 -62 -49 -65 -52 -9 -11 -202 -136 -263
-170 -32 -18 -56 -34 -53 -37 11 -12 262 140 389 236 49 36 92 65 95 64 4 0
16 4 27 10 11 6 22 11 25 12 3 0 22 17 43 38 21 20 42 37 45 37 4 0 25 16 47
35 49 43 61 36 14 -8 -136 -124 -170 -158 -144 -140 49 35 211 193 197 193 -7
0 -10 5 -7 10 4 6 10 8 14 5 8 -4 56 41 56 53 0 4 4 6 8 4 5 -1 6 2 2 8 -3 5
-1 10 4 10 6 0 11 7 11 15 0 8 7 15 16 15 9 0 12 5 8 12 -4 7 -3 8 4 4 7 -4
13 -2 13 3 1 6 2 15 3 21 0 5 10 16 21 24 11 8 16 18 12 22 -4 5 -12 2 -17 -5
-4 -8 -17 -12 -27 -9 -12 3 -20 0 -20 -7 0 -8 7 -11 16 -7 14 5 14 3 3 -11 -8
-9 -17 -16 -20 -15 -4 1 -17 -3 -29 -10 -16 -9 -20 -19 -17 -37 5 -27 -2 -30
-26 -15 -12 7 -11 12 5 32 11 13 24 28 30 33 5 6 23 29 39 52 16 24 32 40 37
37 5 -3 9 4 9 15 0 12 3 21 8 21 4 0 13 13 20 28 6 16 21 38 32 50 12 12 17
22 13 23 -4 0 2 4 15 9 12 5 22 15 22 22 0 9 -3 9 -10 -2 -5 -8 -10 -11 -10
-7 0 5 12 24 26 43 15 19 22 34 18 34 -5 0 -4 4 1 8 10 7 135 265 135 279 0 3
8 15 18 26 9 11 11 17 5 13 -9 -5 -11 -2 -6 11 4 10 10 20 14 23 4 3 10 18 13
33 6 37 15 49 29 40 7 -4 6 0 -2 10 -7 9 -10 17 -5 17 5 0 10 10 10 23 3 41
63 260 75 271 9 8 10 7 6 -5 -15 -45 -64 -249 -70 -296 -2 -11 -9 -28 -16 -37
-15 -18 -7 -51 10 -40 8 4 9 3 5 -5 -6 -9 -11 -9 -22 0 -17 14 -19 -2 -1 -20
7 -8 7 -11 1 -8 -8 4 -14 -6 -18 -28 -4 -20 -11 -33 -16 -30 -6 3 -7 0 -4 -8
3 -8 0 -18 -5 -22 -6 -3 -9 -10 -6 -15 3 -5 1 -11 -5 -15 -5 -3 -10 -15 -10
-27 0 -12 -5 -18 -13 -15 -12 4 -16 -6 -19 -51 -1 -7 -7 -11 -14 -8 -7 3 -10
-2 -7 -15 3 -10 1 -19 -4 -19 -5 0 -9 -10 -10 -21 -1 -12 -7 -27 -14 -33 -9
-8 -10 -7 -6 7 4 11 3 16 -4 12 -5 -4 -7 -16 -3 -27 4 -13 2 -18 -4 -14 -6 3
-14 1 -18 -5 -5 -8 -3 -9 7 -4 11 6 11 5 2 -5 -6 -7 -9 -19 -6 -28 4 -10 2
-13 -5 -8 -8 5 -10 1 -5 -10 5 -14 3 -16 -13 -10 -15 6 -16 5 -7 -5 9 -9 7
-19 -10 -43 -12 -17 -25 -32 -29 -34 -4 -2 -8 -10 -8 -17 0 -8 -5 -17 -12 -21
-6 -4 -8 -3 -4 4 3 6 1 14 -6 18 -7 4 -10 4 -6 -1 4 -4 2 -15 -5 -23 -10 -13
-9 -14 2 -7 11 6 13 4 8 -9 -4 -10 -7 -20 -7 -22 0 -2 -5 -4 -11 -4 -5 0 -7 6
-3 13 5 8 3 8 -9 -2 -9 -7 -14 -18 -11 -23 4 -6 1 -14 -6 -18 -9 -5 -8 -9 4
-13 19 -8 106 128 197 309 35 69 65 121 67 116 2 -6 -4 -25 -13 -42 -9 -18
-14 -38 -11 -46 3 -7 1 -13 -5 -11 -5 1 -27 -31 -49 -71 -21 -39 -37 -72 -34
-72 3 0 -4 -10 -15 -22 -11 -11 -18 -25 -15 -30 3 -4 -2 -11 -10 -14 -9 -3
-13 -10 -10 -15 3 -5 0 -9 -5 -9 -6 0 -10 -3 -9 -7 2 -5 -22 -43 -52 -87 -30
-43 -62 -88 -70 -100 -48 -70 -164 -193 -255 -269 -27 -23 -63 -55 -80 -71
-49 -48 -107 -86 -119 -79 -6 3 -8 3 -4 -2 7 -8 -28 -37 -94 -76 -21 -13 -38
-26 -38 -31 0 -4 -5 -8 -12 -8 -6 0 -21 -9 -32 -19 -12 -11 -49 -33 -83 -50
-34 -17 -65 -37 -69 -43 -5 -8 0 -7 12 2 18 14 18 14 5 -2 -7 -10 -17 -18 -22
-18 -5 0 -43 -16 -85 -35 -42 -20 -79 -33 -82 -30 -3 3 1 5 8 5 7 0 11 2 8 5
-8 9 -58 -17 -52 -26 3 -5 -2 -6 -10 -3 -10 4 -16 1 -16 -7 0 -7 -3 -10 -6 -7
-6 7 -84 -20 -131 -45 -22 -12 -33 -25 -35 -44 -2 -18 -9 -28 -20 -28 -9 0
-20 -4 -24 -8 -10 -10 -26 -9 -20 1 3 5 -1 9 -9 9 -8 0 -12 -4 -10 -8 3 -4
-25 -12 -63 -18 -37 -7 -82 -14 -101 -18 -27 -5 -32 -3 -26 8 7 11 6 12 -6 2
-16 -13 -93 -27 -85 -15 2 4 -11 6 -31 4 -22 -3 -33 -1 -30 5 4 6 -15 4 -42
-3 -27 -7 -66 -10 -87 -7 -22 3 -37 3 -34 0 3 -3 17 -7 32 -9 15 -2 30 -7 34
-10 3 -4 13 -4 22 -1 10 4 14 3 10 -2 -4 -4 -24 -9 -43 -11 -67 -5 -115 -16
-115 -25 0 -6 3 -8 8 -6 4 3 16 1 27 -4 17 -6 17 -8 3 -8 -10 -1 -18 -4 -18
-9 0 -8 138 -7 147 2 4 3 13 6 22 6 12 0 11 -3 -3 -13 -19 -14 -4 -16 139 -18
58 -1 349 61 395 84 17 9 38 13 47 10 12 -5 14 -3 8 7 -6 10 -2 11 19 6 20 -5
26 -4 20 5 -5 9 -1 10 14 7 12 -4 20 -3 17 2 -3 4 2 11 11 14 8 3 13 2 10 -2
-3 -5 1 -9 8 -9 8 0 12 5 10 11 -3 7 7 13 20 14 19 1 24 -2 20 -13 -6 -15 4
-19 36 -16 11 1 10 -3 -4 -14 -28 -21 -16 -19 53 11 34 15 61 33 61 41 0 8 4
12 9 8 5 -3 12 -1 15 4 3 4 31 20 61 35 36 17 53 30 49 38 -4 7 -3 8 5 4 6 -4
18 -2 26 4 8 7 15 9 15 4 0 -5 4 -4 8 1 12 18 65 48 57 34 -3 -8 2 -5 12 6 21
24 114 81 126 77 5 -1 6 2 2 8 -3 5 1 10 9 10 8 0 20 8 25 18 6 9 11 13 11 9
0 -4 20 12 45 36 25 25 45 42 45 40 0 -3 7 0 15 7 8 7 12 17 8 23 -3 5 -2 7 4
4 5 -3 27 9 48 28 22 18 43 31 47 29 3 -2 10 1 14 7 5 8 3 9 -7 4 -8 -5 13 17
46 48 71 66 61 57 131 132 51 56 223 272 271 340 36 51 147 247 185 325 62
126 158 397 158 445 0 9 4 14 8 11 4 -2 8 3 8 12 1 16 3 27 18 87 44 185 62
338 70 609 2 86 7 121 17 128 11 8 10 9 -3 4 -19 -6 -25 9 -9 19 14 8 9 44 -5
38 -8 -3 -11 3 -9 14 2 10 4 24 4 30 1 7 4 12 9 10 6 -2 14 8 11 16 -2 5 -10
64 -10 82 -1 11 -3 14 -6 8 -3 -7 -12 -13 -21 -13 -14 0 -14 2 -3 9 8 5 11 16
8 26 -4 9 -3 14 2 11 5 -3 11 1 15 9 3 8 0 17 -6 21 -7 4 -8 3 -4 -4 4 -7 2
-12 -3 -12 -6 0 -12 5 -12 10 -1 6 -2 16 -3 23 -1 6 3 15 9 19 6 5 6 8 -2 8
-7 0 -13 8 -13 18 0 14 2 15 10 2 8 -13 10 -12 10 3 0 10 -7 17 -17 17 -15 0
-16 2 -3 10 13 9 13 10 0 10 -11 1 -10 4 5 16 19 16 19 16 -5 9 -22 -7 -23 -6
-12 8 10 12 10 16 0 20 -10 4 -10 7 1 18 12 12 13 12 6 0 -5 -10 -4 -12 4 -7
6 4 9 12 6 17 -4 5 -8 19 -10 30 -3 12 -12 31 -22 42 -10 11 -13 18 -7 14 6
-3 10 1 8 11 -4 31 -16 62 -24 62 -4 0 -7 12 -7 26 0 15 -6 30 -12 34 -7 4
-11 13 -9 21 2 8 -3 13 -11 11 -12 -3 -12 -1 0 14 13 15 11 16 -11 11 -14 -4
-19 -4 -12 -1 6 3 12 15 12 25 0 11 -4 18 -8 15 -9 -5 -10 1 -13 49 -1 13 -5
22 -9 20 -4 -3 -11 2 -14 11 -3 8 -2 12 3 9 5 -3 13 0 17 6 5 8 3 9 -6 4 -9
-5 -10 -2 -5 14 4 13 1 28 -6 37 -10 13 -14 12 -32 -3 -19 -18 -20 -17 -8 4 9
18 8 24 -6 32 -14 8 -15 10 -3 11 13 0 13 2 0 9 -8 6 -18 7 -24 4 -5 -3 -6 -1
-2 6 4 6 12 9 17 6 5 -3 6 1 3 9 -3 9 -11 13 -17 9 -6 -3 -7 -1 -3 5 4 7 4 17
0 24 -5 8 -10 6 -15 -8 -6 -16 -8 -16 -8 -2 -1 9 3 20 9 23 6 4 5 13 -3 25
-16 26 -31 26 -17 0 6 -11 8 -20 6 -20 -10 0 -43 75 -39 87 2 6 -3 26 -12 43
-9 18 -14 38 -11 46 3 7 2 13 -3 11 -5 -1 -18 9 -30 23 l-22 25 21 -38 c11
-21 16 -36 10 -32 -6 3 -20 25 -31 48 -12 23 -29 51 -38 61 -9 11 -11 16 -4
13 7 -5 9 0 6 13 -3 11 -10 20 -15 20 -5 0 -6 -6 -3 -12 4 -7 0 -4 -9 7 -8 11
-20 26 -26 33 -6 6 -8 12 -4 12 3 0 1 6 -5 14 -8 10 -8 16 3 25 11 9 16 9 22
0 4 -7 3 -9 -4 -5 -5 3 -9 0 -8 -6 2 -20 19 -25 21 -7 4 24 -9 40 -33 42 -25
1 -27 7 -9 26 10 11 10 13 0 7 -7 -4 -14 -2 -14 3 -1 6 -2 17 -3 23 0 7 -9 14
-19 16 -18 4 -18 3 -2 -22 10 -14 14 -26 11 -26 -4 0 -2 -9 4 -20 6 -12 16
-18 23 -14 7 4 6 1 -2 -7 -9 -9 -15 -10 -18 -3 -2 6 -42 59 -88 117 -47 58
-85 111 -85 118 0 7 -3 9 -7 6 -7 -7 -30 21 -31 38 0 5 -9 12 -19 16 -16 6
-16 8 -1 14 9 4 25 -1 37 -12 25 -21 28 -41 4 -22 -16 13 -17 12 -4 -3 7 -10
17 -15 22 -12 5 3 9 0 9 -7 0 -10 3 -10 11 -2 9 9 8 16 -5 28 -9 9 -14 21 -11
26 4 5 -3 9 -14 9 -11 0 -22 9 -26 20 -3 11 -11 20 -16 20 -6 0 -8 4 -5 9 3 4
-7 19 -22 32 -14 13 -20 16 -13 7 7 -10 10 -18 5 -18 -12 0 -41 20 -30 20 5 0
3 6 -3 13 -6 8 -10 16 -8 18 1 2 0 3 -2 2 -2 -2 -10 2 -18 8 -22 19 -15 -2 8
-22 11 -9 19 -21 18 -25 -1 -5 7 -13 17 -19 11 -5 21 -11 23 -12 2 -2 -1 -9
-8 -16 -9 -11 -28 3 -101 73 -49 49 -90 96 -90 105 0 9 -6 15 -12 13 -15 -5
-59 38 -49 48 3 4 1 4 -5 1 -6 -4 -19 2 -29 13 -16 18 -14 24 7 21 9 -1 4 27
-7 36 -4 4 -5 3 -2 -3 4 -7 0 -17 -8 -24 -13 -10 -19 -9 -35 5 -11 10 -17 22
-14 26 3 5 -1 6 -9 3 -8 -3 -18 0 -23 7 -5 8 -3 10 6 4 9 -5 11 -4 6 4 -4 6
-11 9 -16 6 -4 -3 -30 11 -56 30 -51 36 -118 75 -130 75 -14 0 32 -37 53 -44
12 -4 24 -13 27 -21 3 -8 11 -15 18 -15 7 0 29 -14 48 -31 l35 -30 -45 28
c-71 44 -114 72 -125 80 -29 23 -105 66 -239 137 -78 42 -213 96 -237 96 -9 0
-29 10 -45 22 -15 13 -25 17 -21 10 6 -8 3 -10 -7 -6 -9 3 -14 9 -11 14 2 4
-7 5 -22 2 -18 -3 -24 -1 -19 6 4 8 2 10 -7 6 -8 -3 -18 -1 -22 5 -3 6 -15 11
-26 11 -10 0 -19 4 -19 9 0 5 -11 8 -24 5 -14 -2 -31 3 -40 12 -9 8 -16 11
-16 6 0 -11 -92 17 -101 30 -3 5 -26 10 -50 10 -24 1 -36 3 -26 6 9 2 15 8 11
13 -3 5 -9 7 -14 4 -5 -3 -19 -1 -33 4 -17 7 -28 6 -37 -2 -10 -9 -11 -9 -6 1
4 6 2 12 -3 12 -6 0 -11 -5 -11 -11 0 -6 -7 -3 -16 5 -8 9 -23 16 -32 16 -15
0 -15 -2 -2 -10 9 -6 10 -10 3 -10 -6 0 -15 5 -19 11 -3 6 -17 8 -30 5 -14 -4
-24 -2 -24 4 0 5 -10 10 -22 10 -18 0 -20 2 -8 9 8 6 19 7 25 3 13 -8 30 -11
88 -13 26 -1 50 -6 53 -11 3 -4 8 -6 12 -4 9 5 63 -6 204 -40 49 -12 65 -20
61 -30 -3 -8 0 -14 7 -14 6 0 9 4 5 9 -7 13 15 26 24 14 3 -5 14 -9 24 -10 9
0 26 -1 38 -2 11 0 18 -5 15 -10 -3 -5 3 -11 14 -14 27 -7 31 14 6 35 l-21 17
23 -2 c12 -1 22 -7 22 -13 0 -7 7 -11 15 -10 19 3 32 16 16 16 -7 0 -10 4 -7
8 2 4 -31 19 -74 33 -43 14 -77 22 -74 17 3 -4 -2 -5 -10 -2 -9 3 -14 10 -11
15 6 8 -28 4 -45 -6 -6 -3 -10 -2 -10 4 0 5 6 12 13 14 6 3 -1 6 -16 6 -16 1
-36 5 -45 10 -9 5 -33 11 -52 14 -19 3 -46 8 -60 11 -14 3 -43 8 -65 10 -22 3
-65 10 -95 17 -30 7 -59 12 -63 11 -28 -8 -117 -8 -117 -1 0 5 -7 9 -15 9 -8
0 -15 -4 -15 -9 0 -5 -8 -8 -17 -6 -10 2 -18 4 -18 5 0 1 -8 3 -18 5 -11 2
-16 0 -12 -3 4 -4 11 -8 16 -8 5 -1 11 -3 14 -4 14 -7 31 -5 44 4 11 8 13 8 8
-1 -4 -6 -1 -14 5 -16 7 -3 -9 -3 -37 0 -27 3 -60 6 -72 7 -11 1 -19 4 -17 7
4 7 -20 19 -37 19 -5 0 -9 -7 -9 -15 0 -20 -30 -7 -31 14 0 11 -3 9 -9 -6 -11
-27 -23 -31 -13 -5 6 15 5 16 -12 2 -17 -14 -18 -13 -12 3 3 9 4 17 1 17 -2 0
-7 -6 -10 -14z m306 -38 c0 -6 -6 -5 -15 2 -8 7 -15 14 -15 16 0 2 7 1 15 -2
8 -4 15 -11 15 -16z m174 -29 c-3 -5 -10 -7 -15 -3 -5 3 -7 10 -3 15 3 5 10 7
15 3 5 -3 7 -10 3 -15z m-349 1 c-3 -5 -12 -10 -18 -10 -7 0 -6 4 3 10 19 12
23 12 15 0z m128 -9 c4 -1 16 -1 28 -1 11 0 18 -4 15 -8 -3 -5 -28 -4 -55 2
-29 6 -46 13 -39 17 7 4 19 4 27 -1 9 -4 19 -8 24 -9z m287 10 c0 -6 -4 -12
-8 -15 -5 -3 -9 1 -9 9 0 8 4 15 9 15 4 0 8 -4 8 -9z m-467 -22 c-8 -8 -13 -7
-18 2 -5 8 -4 10 3 5 7 -4 12 -2 12 5 0 7 3 9 7 6 4 -4 2 -12 -4 -18z m525 -4
c-3 -3 -9 2 -12 12 -6 14 -5 15 5 6 7 -7 10 -15 7 -18z m-571 9 c-3 -3 -12 -4
-19 -1 -8 3 -5 6 6 6 11 1 17 -2 13 -5z m304 -3 c7 11 9 10 9 -3 0 -10 -7 -16
-19 -15 -12 1 -17 6 -13 16 4 12 7 12 10 2 4 -11 6 -11 13 0z m370 -11 c10 0
19 -4 19 -9 0 -6 -12 -6 -30 0 -18 7 -27 15 -23 22 5 8 8 8 11 -1 2 -7 12 -12
23 -12z m59 -25 c0 -12 -19 -12 -23 0 -4 9 -1 12 9 8 7 -3 14 -7 14 -8z m-180
-29 c0 -2 -9 -2 -20 1 -11 3 -20 9 -20 15 0 5 9 4 20 -2 11 -6 20 -12 20 -14z
m261 4 c6 0 7 6 3 13 -4 6 -3 8 1 4 5 -4 10 -14 11 -22 2 -12 -2 -12 -17 -5
-10 6 -19 16 -18 23 0 9 2 9 6 0 2 -7 9 -13 14 -13z m-771 -366 c0 -2 -12 -4
-27 -4 -21 0 -24 3 -14 9 13 8 41 5 41 -5z m110 -34 c0 -5 -7 -7 -15 -4 -8 4
-15 8 -15 10 0 2 7 4 15 4 8 0 15 -4 15 -10z m760 -130 c0 -5 -2 -10 -4 -10
-3 0 -8 5 -11 10 -3 6 -1 10 4 10 6 0 11 -4 11 -10z m180 -92 c0 -13 -9 -10
-33 13 l-22 21 28 -13 c15 -7 27 -16 27 -21z m168 -37 c11 -6 10 -10 -4 -15
-9 -3 -19 -4 -22 -1 -3 3 1 5 9 5 11 0 11 2 -1 10 -8 5 -10 10 -5 10 6 0 16
-4 23 -9z m-23 -41 c3 -6 -1 -7 -9 -4 -18 7 -21 14 -7 14 6 0 13 -4 16 -10z
m70 -45 l20 -16 -20 10 c-11 5 -29 17 -40 26 l-20 16 20 -10 c11 -5 29 -17 40
-26z m50 -35 c3 -6 -1 -7 -9 -4 -18 7 -21 14 -7 14 6 0 13 -4 16 -10z m732
-24 c-4 -11 -1 -14 11 -10 9 2 7 -1 -6 -7 -12 -7 -25 -9 -28 -6 -9 9 4 37 17
37 6 0 9 -7 6 -14z m-621 -67 c3 -6 -5 -3 -20 6 -14 10 -26 19 -26 22 0 7 39
-17 46 -28z m620 -49 c25 -30 29 -37 10 -20 -15 14 -37 39 -49 55 -24 36 -14
26 39 -35z m-555 -7 l34 -37 -37 30 c-20 16 -37 32 -37 37 -2 12 4 8 40 -30z
m649 -104 c57 -76 148 -208 162 -234 20 -38 -9 0 -70 90 -33 50 -82 116 -107
148 -26 31 -43 57 -38 56 4 0 28 -27 53 -60z m-550 16 c12 -13 28 -22 34 -18
6 3 8 2 3 -2 -4 -5 3 -20 15 -34 l23 -26 -29 25 c-48 42 -85 80 -77 80 4 0 18
-11 31 -25z m130 -77 c0 -5 -8 0 -18 10 -11 9 -17 21 -14 25 4 8 31 -22 32
-35z m-4164 7 c-9 -14 -23 -36 -32 -50 -9 -14 -19 -24 -21 -21 -8 7 52 96 65
96 2 0 -3 -11 -12 -25z m4238 -80 c15 -19 21 -32 14 -29 -18 7 -62 64 -50 64
5 0 22 -16 36 -35z m-70 -48 c-2 -7 4 -24 16 -37 11 -13 20 -28 20 -34 0 -6 5
-4 10 4 8 13 11 13 22 1 8 -9 9 -11 1 -7 -19 10 -24 -9 -7 -30 9 -10 13 -14
10 -7 -4 6 -2 14 4 18 6 4 9 -4 8 -20 -3 -30 -18 -28 -35 5 -6 13 -19 27 -27
32 -9 5 -16 14 -16 20 0 6 -7 19 -16 29 -9 10 -13 23 -9 28 9 16 25 14 19 -2z
m-4254 -1 c0 -2 -8 -10 -17 -17 -16 -13 -17 -12 -4 4 13 16 21 21 21 13z m-42
-56 c-7 -10 -14 -17 -17 -15 -4 4 18 35 25 35 2 0 -1 -9 -8 -20z m4408 -87
c-4 -31 -21 -41 -29 -18 -4 8 -2 15 3 15 6 0 10 9 10 21 0 11 4 18 9 14 5 -3
8 -17 7 -32z m24 -14 c0 -6 -4 -7 -10 -4 -5 3 -10 11 -10 16 0 6 5 7 10 4 6
-3 10 -11 10 -16z m610 -59 c0 -5 -2 -10 -4 -10 -3 0 -8 5 -11 10 -3 6 -1 10
4 10 6 0 11 -4 11 -10z m150 -295 c-7 -14 -15 -23 -18 -21 -2 3 0 11 4 18 5 7
7 22 5 33 -2 16 0 18 10 8 10 -10 10 -17 -1 -38z m18 -90 c-3 -3 -9 2 -12 12
-6 14 -5 15 5 6 7 -7 10 -15 7 -18z m-422 -87 c10 -12 13 -18 7 -14 -8 4 -13
2 -13 -5 0 -18 -10 -5 -15 20 -5 26 -3 26 21 -1z m512 -120 c10 -12 10 -18 1
-24 -7 -4 -9 -3 -5 4 3 6 2 13 -4 17 -5 3 -10 11 -10 17 0 6 1 9 3 7 1 -2 8
-11 15 -21z m27 -97 c-6 -5 -25 10 -25 20 0 5 6 4 14 -3 8 -7 12 -15 11 -17z
m5 -21 c0 -5 -2 -10 -4 -10 -3 0 -8 5 -11 10 -3 6 -1 10 4 10 6 0 11 -4 11
-10z m-252 -235 c-3 -3 -9 2 -12 12 -6 14 -5 15 5 6 7 -7 10 -15 7 -18z m5
-52 c3 -18 2 -35 -1 -37 -4 -2 -8 14 -9 37 -3 47 3 47 10 0z m-165 2 c-3 -3
-9 2 -12 12 -6 14 -5 15 5 6 7 -7 10 -15 7 -18z m456 -27 c1 -13 5 -29 9 -35
6 -9 3 -11 -7 -7 -10 4 -16 19 -16 42 0 38 12 38 14 0z m-284 -51 c0 -13 6
-29 13 -37 10 -12 9 -12 -4 -2 -18 14 -32 62 -18 62 5 0 9 -10 9 -23z m11
-114 c1 -27 1 -54 0 -62 -2 -7 1 -11 6 -8 5 3 9 -3 9 -13 0 -10 -4 -16 -8 -14
-11 7 -10 -8 2 -26 5 -9 5 -19 -1 -26 -5 -7 -9 -16 -8 -20 1 -5 0 -13 -1 -19
-1 -5 -1 -25 0 -42 1 -25 -2 -32 -13 -28 -7 3 -14 12 -14 20 0 8 5 11 10 8 6
-4 8 1 4 12 -4 9 -2 25 5 33 11 14 10 15 -6 8 -18 -6 -19 -5 -5 11 18 22 18
45 0 67 -12 14 -12 16 4 10 14 -6 16 -3 11 12 -11 38 -16 124 -6 124 6 0 11
-21 11 -47z m-117 -264 c-6 -47 -13 -47 -11 -1 1 22 4 39 8 36 4 -2 5 -18 3
-35z m113 -70 c-1 -46 -4 -58 -15 -54 -7 3 -16 5 -18 5 -2 0 -4 4 -4 10 0 5 8
7 18 4 14 -5 14 -3 -3 12 -17 14 -17 16 -2 11 19 -7 21 0 7 23 -5 9 -5 19 2
27 8 10 7 13 -3 10 -8 -2 -11 -2 -6 0 4 3 5 9 2 14 -4 5 1 6 9 3 10 -4 14 -21
13 -65z m-117 6 c0 -8 -4 -15 -10 -15 -5 0 -7 7 -4 15 4 8 8 15 10 15 2 0 4
-7 4 -15z m86 -87 c-3 -13 -8 -45 -11 -73 -3 -27 -10 -53 -14 -58 -5 -5 7 96
18 151 1 1 3 2 6 2 3 0 3 -10 1 -22z m29 2 c3 -5 1 -10 -4 -10 -6 0 -11 5 -11
10 0 6 2 10 4 10 3 0 8 -4 11 -10z m-7 -50 c-1 -17 -4 -33 -8 -35 -4 -2 -5 6
-4 18 1 12 3 28 3 35 2 26 10 10 9 -18z m-11 -70 c-1 -11 -5 -20 -10 -20 -5 0
-4 -7 3 -15 9 -10 9 -15 1 -15 -11 0 -16 15 -11 35 1 6 3 16 3 23 0 6 4 12 8
12 4 0 7 -9 6 -20z m-12 -87 c-3 -16 -8 -45 -11 -66 -4 -20 -11 -40 -16 -43
-5 -3 -6 9 -2 28 3 18 7 42 9 53 2 23 15 55 21 55 3 0 2 -12 -1 -27z m-29
-140 c-3 -10 -10 -36 -15 -58 -6 -22 -15 -47 -21 -55 -14 -21 -1 69 13 95 6
11 10 23 9 28 -1 4 3 7 9 7 6 0 8 -8 5 -17z m-287 -500 c-46 -86 -89 -155
-102 -164 -5 -3 -7 -8 -6 -10 6 -8 -36 -69 -48 -69 -20 0 -16 8 27 60 39 47
92 130 140 222 13 26 26 46 28 44 2 -2 -16 -39 -39 -83z m-191 -432 c-14 -23
-29 -28 -25 -9 2 14 30 39 35 33 2 -2 -3 -12 -10 -24z m-64 -37 c8 -3 12 -12
9 -21 -4 -11 -2 -14 5 -9 19 11 14 1 -9 -20 -11 -10 -20 -14 -19 -9 5 24 -2
23 -27 -3 -33 -33 -95 -86 -146 -126 -20 -15 -34 -32 -31 -37 3 -5 2 -8 -3 -7
-4 1 -19 -4 -33 -11 -14 -8 20 29 75 82 55 53 106 96 113 97 7 0 10 5 7 10 -3
6 1 10 9 10 9 0 15 3 14 8 -1 8 12 42 17 42 2 0 10 -3 19 -6z m-264 -568 c0
-2 -8 -10 -17 -17 -16 -13 -17 -12 -4 4 13 16 21 21 21 13z m-3725 -86 c10
-11 16 -20 13 -20 -3 0 -13 9 -23 20 -10 11 -16 20 -13 20 3 0 13 -9 23 -20z
m3570 -33 c3 -4 2 -5 -2 -2 -3 3 -30 -8 -59 -24 -28 -17 -54 -28 -56 -25 -3 2
-11 -2 -18 -11 -7 -8 -21 -15 -32 -15 -15 0 -18 -4 -13 -17 5 -15 4 -16 -7 -5
-11 11 -9 16 12 32 13 10 28 16 32 14 4 -3 8 -1 8 5 0 13 55 42 63 34 4 -3 9
1 13 10 5 15 48 18 59 4z m-244 -121 c-7 -8 -19 -12 -28 -9 -11 5 -12 7 -2 14
7 4 17 5 21 3 4 -3 8 0 8 7 0 7 3 9 6 6 4 -4 1 -13 -5 -21z m-44 -20 c5 -5 3
-6 -4 -2 -7 4 -13 2 -13 -3 0 -6 -6 -10 -12 -8 -7 1 -12 -4 -10 -11 1 -8 -2
-11 -8 -7 -6 3 -7 11 -4 17 4 6 -2 5 -15 -1 -12 -7 -26 -9 -33 -5 -6 4 0 11
17 18 34 14 70 15 82 2z m-17 -46 c-8 -5 -19 -10 -25 -10 -5 0 -3 5 5 10 8 5
20 10 25 10 6 0 3 -5 -5 -10z m-490 -39 c-8 -5 -31 -11 -50 -14 -34 -5 -34 -5
-8 7 31 14 83 20 58 7z m-416 -52 c3 -3 -6 -6 -19 -7 -14 -1 -25 2 -25 6 0 9
36 9 44 1z m-1613 -134 c67 -32 69 -36 8 -19 -20 6 -97 54 -87 54 3 0 39 -16
79 -35z m789 -40 c19 -2 47 -4 63 -4 15 -1 27 -4 27 -8 0 -14 -159 -2 -193 13
l-32 15 50 -7 c28 -4 66 -8 85 -9z"/>
<path d="M3815 5970 c27 -12 43 -12 25 0 -8 5 -22 9 -30 9 -10 0 -8 -3 5 -9z"/>
<path d="M4113 5968 c1 -7 -8 -17 -20 -23 -13 -5 -23 -13 -23 -17 0 -6 31 -19
59 -24 8 -2 17 -6 20 -11 10 -13 31 -14 29 0 -2 7 9 12 29 13 23 1 30 -3 26
-13 -3 -8 -13 -11 -24 -8 -11 4 -19 2 -19 -4 0 -9 56 -27 73 -23 4 1 7 -2 7
-8 0 -5 7 -10 15 -10 8 0 15 5 15 11 0 5 -5 7 -12 3 -7 -4 -8 -3 -4 4 4 7 2
12 -4 12 -6 0 -8 5 -5 10 3 6 11 10 16 10 6 0 7 -5 3 -11 -4 -7 0 -9 12 -5 25
8 53 -9 29 -17 -9 -4 -13 -3 -10 3 3 6 1 10 -4 10 -6 0 -11 -11 -11 -25 0 -22
5 -27 26 -24 4 0 10 -3 13 -8 5 -7 52 -32 71 -38 22 -7 50 -21 74 -39 16 -11
26 -15 22 -8 -4 7 -2 12 3 12 6 0 11 -8 12 -17 0 -13 2 -14 6 -4 3 8 -2 20
-13 28 -24 17 -29 47 -6 38 12 -4 14 -3 6 5 -7 7 -18 7 -35 1 -21 -9 -21 -10
-4 -11 16 0 17 -2 5 -10 -17 -11 -19 -9 -25 20 -3 17 -1 20 13 15 14 -5 15 -4
4 7 -11 11 -15 10 -25 -2 -18 -22 -46 -22 -40 1 3 11 10 19 15 19 5 0 6 -5 2
-12 -4 -7 -3 -8 4 -4 18 11 15 16 -23 32 -19 8 -35 19 -35 24 0 5 -6 7 -13 4
-7 -2 -24 4 -36 15 -13 12 -28 18 -32 15 -5 -3 -33 8 -63 25 -29 17 -65 32
-80 33 -14 1 -26 6 -26 10 0 4 -4 8 -10 8 -5 0 -9 -5 -7 -12z m63 -49 c6 -11
-20 -12 -30 -1 -4 4 -13 7 -18 7 -6 0 -13 6 -15 12 -4 10 3 10 26 2 17 -6 34
-15 37 -20z m34 11 c0 -5 -5 -10 -11 -10 -5 0 -7 5 -4 10 3 6 8 10 11 10 2 0
4 -4 4 -10z m185 -84 c14 -8 23 -16 18 -18 -17 -9 -75 11 -67 23 7 12 17 11
49 -5z m110 -96 c3 -6 -1 -7 -9 -4 -18 7 -21 14 -7 14 6 0 13 -4 16 -10z"/>
<path d="M4540 5776 c0 -2 7 -7 16 -10 8 -3 12 -2 9 4 -6 10 -25 14 -25 6z"/>
<path d="M4576 5751 c-4 -5 6 -18 20 -29 18 -12 23 -21 16 -26 -6 -4 -19 2
-29 14 -22 25 -33 26 -33 1 0 -18 56 -71 73 -71 17 0 5 18 -15 24 -19 5 -20 8
-8 15 10 7 24 0 52 -25 22 -19 43 -32 48 -29 6 4 10 1 10 -4 0 -6 6 -11 14
-11 7 0 21 -11 30 -25 16 -25 50 -33 61 -16 3 6 -5 8 -19 5 -14 -2 -28 1 -32
7 -4 7 -3 9 4 5 6 -3 13 -2 17 4 3 5 -2 10 -11 10 -10 0 -15 3 -11 6 6 7 -1
15 -43 49 l-25 20 24 -28 c28 -31 15 -37 -17 -7 -12 12 -22 16 -22 10 0 -6 -5
-8 -10 -5 -6 4 -8 10 -5 14 2 5 -7 13 -21 20 -14 6 -23 15 -19 20 3 5 1 12 -5
16 -6 4 -8 10 -5 15 3 5 0 12 -6 16 -8 5 -9 3 -4 -6 5 -8 3 -11 -6 -8 -8 3
-13 11 -11 17 3 13 -5 15 -12 2z m9 -61 c3 -5 2 -10 -4 -10 -5 0 -13 5 -16 10
-3 6 -2 10 4 10 5 0 13 -4 16 -10z"/>
<path d="M4660 5686 c0 -2 7 -7 16 -10 8 -3 12 -2 9 4 -6 10 -25 14 -25 6z"/>
<path d="M3335 5590 c-10 -16 7 -31 23 -21 10 6 10 10 -2 20 -10 9 -16 9 -21
1z"/>
<path d="M3423 5583 c9 -2 14 -9 11 -15 -4 -6 -2 -8 4 -4 5 3 12 1 14 -5 2 -6
16 -13 30 -14 19 -2 25 1 24 13 -3 20 -22 27 -32 11 -5 -9 -2 -10 10 -6 11 4
15 3 11 -4 -9 -13 -30 -6 -30 11 0 8 -13 14 -30 16 -16 1 -22 0 -12 -3z"/>
<path d="M3562 5561 c-11 -6 -10 -10 4 -15 9 -3 19 -4 22 -1 3 3 -1 5 -9 5
-11 0 -11 2 1 10 8 5 11 10 5 10 -5 0 -16 -4 -23 -9z"/>
<path d="M3603 5535 c0 -5 11 -10 24 -10 12 0 25 5 27 10 2 6 -9 10 -24 10
-14 0 -27 -4 -27 -10z"/>
<path d="M3666 5516 c5 -13 9 -14 20 -5 12 10 18 6 16 -12 -1 -3 14 -4 33 -2
18 2 37 -2 40 -8 5 -6 0 -10 -11 -9 -87 10 -38 -17 136 -73 55 -18 332 -161
370 -192 8 -6 31 -21 51 -32 38 -22 56 -35 128 -98 71 -62 98 -91 200 -215 97
-118 129 -150 153 -150 13 -1 38 -32 129 -160 41 -58 99 -119 99 -105 0 5 -23
43 -79 130 -100 155 -292 371 -436 490 -33 28 -69 58 -80 68 -31 28 -164 117
-175 117 -6 0 -10 4 -10 8 0 5 -22 19 -50 32 -27 13 -58 30 -67 39 -15 14
-148 84 -163 86 -3 0 -20 9 -37 18 -18 10 -33 14 -33 10 0 -5 -5 -1 -10 9 -6
10 -18 14 -30 11 -11 -3 -20 -1 -20 4 0 5 -10 9 -22 10 -16 1 -9 -6 22 -22 53
-28 51 -30 -12 -11 -25 8 -50 11 -54 8 -5 -4 -2 1 6 11 12 16 12 20 -1 28 -8
5 -18 9 -24 10 -5 0 -17 2 -25 5 -62 16 -70 16 -64 0z m254 -86 c8 -5 11 -10
5 -10 -5 0 -17 5 -25 10 -8 5 -10 10 -5 10 6 0 17 -5 25 -10z"/>
<path d="M4878 5493 c7 -3 16 -2 19 1 4 3 -2 6 -13 5 -11 0 -14 -3 -6 -6z"/>
<path d="M5010 5416 c0 -2 7 -7 16 -10 8 -3 12 -2 9 4 -6 10 -25 14 -25 6z"/>
<path d="M5055 5390 c3 -5 8 -10 11 -10 2 0 4 5 4 10 0 6 -5 10 -11 10 -5 0
-7 -4 -4 -10z"/>
<path d="M5054 5356 c1 -8 5 -18 8 -22 4 -3 5 1 4 10 -1 8 -5 18 -8 22 -4 3
-5 -1 -4 -10z"/>
<path d="M3284 5341 c-33 -10 -69 -23 -80 -29 -57 -30 -231 -86 -346 -112
-117 -27 -137 -29 -195 -20 -36 6 -67 9 -69 7 -2 -1 5 -17 16 -34 23 -39 88
-78 182 -109 63 -22 77 -23 127 -14 31 6 94 18 141 25 135 22 178 32 368 83
74 20 107 34 115 48 5 10 15 22 21 26 6 4 5 12 -3 22 -7 9 -11 22 -8 30 8 21
-20 40 -104 70 -87 30 -85 30 -165 7z"/>
<path d="M5220 5286 c35 -44 69 -76 80 -76 6 0 9 -4 6 -9 -3 -5 6 -17 19 -27
14 -10 25 -24 25 -29 0 -6 8 -20 18 -31 9 -10 35 -41 57 -69 47 -58 57 -71 90
-109 14 -16 25 -32 25 -36 0 -11 70 -63 76 -57 3 3 -3 14 -13 24 -10 10 -30
37 -45 60 -15 23 -37 52 -50 66 -13 13 -32 35 -43 48 -11 13 -31 32 -45 42
-14 10 -19 15 -12 12 6 -3 12 -1 12 4 0 10 -14 15 -33 12 -5 -1 -6 3 -2 8 8
13 -16 51 -32 51 -7 0 -13 5 -13 11 0 12 -58 69 -105 102 -25 18 -28 18 -15 3z"/>
<path d="M5317 5093 c-15 -16 -15 -18 0 -35 16 -17 17 -17 37 -1 20 17 20 17
7 1 -10 -13 -10 -18 -2 -18 7 0 9 -5 6 -10 -4 -6 -11 -8 -16 -4 -6 3 2 -12 18
-35 31 -44 45 -53 68 -45 19 8 19 20 0 28 -8 3 -14 2 -12 -2 1 -4 -2 -9 -7
-12 -5 -3 -20 10 -33 28 -14 17 -21 32 -16 32 5 0 15 -12 22 -26 10 -22 14
-24 27 -13 14 12 14 14 -3 20 -10 4 -13 8 -8 9 6 0 2 5 -7 11 -10 5 -18 19
-18 30 0 12 -10 23 -25 29 -14 5 -25 12 -25 15 0 4 5 3 12 -1 7 -4 8 -3 4 4
-9 15 -9 15 -29 -5z m14 -30 c13 -16 12 -17 -3 -4 -10 7 -18 15 -18 17 0 8 8
3 21 -13z"/>
<path d="M2910 4970 c0 -12 9 -39 20 -61 17 -33 20 -55 18 -126 -2 -64 -7 -88
-18 -94 -25 -14 -137 -58 -272 -107 -71 -26 -128 -50 -128 -53 0 -3 26 -18 59
-33 91 -44 190 -41 299 9 30 14 57 23 60 20 8 -8 2 -147 -8 -164 -4 -9 -19
-17 -32 -19 -12 -1 -45 -8 -73 -16 -144 -39 -215 -62 -215 -66 0 -16 72 -74
122 -99 26 -13 106 -11 155 4 22 7 22 6 17 -66 -3 -41 -7 -75 -9 -77 -1 -2
-69 -18 -151 -36 -82 -19 -161 -39 -176 -45 -16 -6 -28 -9 -28 -7 0 2 -21 -2
-47 -10 -25 -8 -48 -12 -50 -11 -10 11 -6 82 12 224 5 31 14 131 19 203 4 50
-14 102 -50 142 -35 40 -124 108 -171 132 -29 14 -33 14 -47 0 -19 -19 -20 -8
5 -79 22 -62 24 -135 13 -385 -3 -63 -6 -157 -8 -207 -1 -51 -4 -95 -7 -97 -9
-9 -245 -66 -274 -66 -16 0 -59 14 -93 30 -35 17 -66 30 -68 30 -12 0 6 -45
35 -90 89 -138 186 -177 348 -143 36 7 67 12 69 10 10 -9 16 -78 18 -185 l2
-123 64 -66 c65 -66 93 -83 133 -83 52 1 52 13 12 190 -24 108 -38 274 -27
320 6 29 237 125 345 144 15 3 35 7 45 10 38 11 155 21 352 31 63 4 129 8 145
11 50 7 276 7 330 0 111 -16 101 -4 101 -114 1 -53 3 -124 4 -157 4 -81 -14
-322 -25 -333 -2 -2 -22 6 -46 17 -23 12 -44 21 -46 21 -2 0 8 -17 21 -37 22
-33 54 -110 56 -131 3 -68 30 -123 72 -153 18 -13 39 -29 47 -37 7 -7 21 -10
30 -7 9 2 28 -2 43 -9 57 -30 86 34 94 207 3 67 9 158 13 202 4 44 5 91 1 105
-7 25 -2 302 5 327 6 20 178 -32 289 -87 108 -55 123 -57 166 -35 30 16 34 23
32 60 -1 11 -2 36 -3 55 -1 38 -1 38 -159 144 -76 51 -185 89 -214 74 -24 -13
-101 -1 -117 18 -19 22 -15 267 5 397 3 17 8 51 10 74 3 24 12 55 19 70 11 22
12 35 3 58 -29 80 -112 163 -213 212 -107 52 -166 52 -459 -2 -77 -14 -154
-30 -173 -35 -45 -12 -47 -10 -50 46 -2 37 -71 99 -157 140 -83 40 -94 41 -94
14z m808 -275 c17 -3 33 -11 33 -18 1 -7 2 -155 3 -331 l2 -319 -71 9 c-38 5
-178 9 -310 9 l-240 1 3 29 c2 17 5 39 7 50 2 11 4 30 4 42 2 45 77 69 196 63
109 -6 136 -3 150 17 24 31 18 70 -17 104 -39 37 -166 89 -194 79 -10 -4 -41
-10 -67 -14 l-48 -7 3 103 3 103 65 22 c61 20 86 25 185 40 211 31 212 31 293
18z"/>
<path d="M552 4828 c-13 -16 -72 -117 -72 -123 0 -3 4 -5 8 -5 4 0 25 32 46
70 35 66 42 86 18 58z"/>
<path d="M5535 4801 c-3 -5 -2 -12 3 -15 5 -3 9 1 9 9 0 17 -3 19 -12 6z"/>
<path d="M549 4743 c-18 -22 -49 -79 -49 -88 0 -10 30 32 53 73 20 35 18 42
-4 15z"/>
<path d="M5570 4715 c0 -5 5 -17 10 -25 5 -8 10 -10 10 -5 0 6 -5 17 -10 25
-5 8 -10 11 -10 5z"/>
<path d="M5610 4691 c0 -6 4 -13 10 -16 6 -3 7 1 4 9 -7 18 -14 21 -14 7z"/>
<path d="M5680 4571 c5 -11 15 -23 21 -27 6 -3 3 5 -6 20 -20 30 -30 35 -15 7z"/>
<path d="M5059 4551 c6 -10 7 -22 3 -26 -4 -5 -1 -5 6 -1 9 5 9 12 2 27 -6 10
-13 19 -16 19 -2 0 0 -8 5 -19z"/>
<path d="M5142 4540 c-9 -15 -9 -21 1 -26 6 -4 9 -4 5 1 -4 4 -3 14 4 22 6 7
9 15 7 18 -3 2 -10 -4 -17 -15z"/>
<path d="M5715 4520 c-8 -12 12 -40 28 -40 6 0 3 6 -8 13 -10 8 -15 19 -11 25
4 7 5 12 2 12 -3 0 -8 -5 -11 -10z"/>
<path d="M5677 4503 c3 -7 6 -13 8 -13 2 0 5 6 8 13 3 8 -1 14 -8 14 -7 0 -11
-6 -8 -14z"/>
<path d="M5115 4490 c-3 -5 -1 -10 4 -10 6 0 11 5 11 10 0 6 -2 10 -4 10 -3 0
-8 -4 -11 -10z"/>
<path d="M5170 4461 c0 -5 8 -15 18 -22 15 -12 16 -12 5 2 -7 9 -10 19 -6 22
3 4 1 7 -5 7 -7 0 -12 -4 -12 -9z"/>
<path d="M5220 4410 c6 -11 13 -20 16 -20 2 0 0 9 -6 20 -6 11 -13 20 -16 20
-2 0 0 -9 6 -20z"/>
<path d="M5774 4391 c2 -17 7 -35 11 -39 4 -4 4 4 0 17 -6 18 -4 22 6 15 11
-6 10 -3 -1 12 -8 10 -16 21 -17 23 -2 2 -1 -10 1 -28z"/>
<path d="M5177 4369 c4 -13 8 -18 11 -10 2 7 -1 18 -6 23 -8 8 -9 4 -5 -13z"/>
<path d="M5130 4376 c0 -2 8 -10 18 -17 15 -13 16 -12 3 4 -13 16 -21 21 -21
13z"/>
<path d="M293 4288 c-15 -24 -43 -112 -42 -133 1 -20 1 -20 6 0 3 11 9 25 14
31 5 6 10 19 12 30 2 10 7 28 11 39 13 33 16 45 11 45 -2 0 -7 -6 -12 -12z"/>
<path d="M5211 4293 c0 -5 4 -17 9 -28 8 -18 9 -17 9 8 1 15 -3 27 -9 27 -5 0
-10 -3 -9 -7z"/>
<path d="M5190 4244 c0 -8 5 -12 10 -9 6 4 8 11 5 16 -9 14 -15 11 -15 -7z"/>
<path d="M5338 4056 c5 -10 7 -27 5 -37 -4 -14 0 -19 13 -19 15 0 16 2 5 9 -7
5 -11 13 -8 18 4 6 -1 19 -9 29 -15 19 -15 19 -6 0z"/>
<path d="M5411 3754 c0 -11 3 -14 6 -6 3 7 2 16 -1 19 -3 4 -6 -2 -5 -13z"/>
<path d="M5491 3694 c0 -11 3 -14 6 -6 3 7 2 16 -1 19 -3 4 -6 -2 -5 -13z"/>
<path d="M5417 3665 c-4 -8 -3 -16 1 -19 4 -3 9 4 9 15 2 23 -3 25 -10 4z"/>
<path d="M5406 3568 c3 -5 10 -6 15 -3 13 9 11 12 -6 12 -8 0 -12 -4 -9 -9z"/>
<path d="M5410 3480 c24 -24 27 -24 27 -5 0 8 -4 12 -8 9 -4 -2 -10 0 -14 6
-3 5 -10 10 -16 10 -5 0 0 -9 11 -20z"/>
<path d="M5440 3379 c0 -5 -6 -7 -12 -3 -7 4 -9 3 -5 -1 13 -15 36 -14 30 1
-6 17 -13 18 -13 3z"/>
<path d="M5493 3375 c0 -8 4 -15 9 -15 4 0 8 7 8 15 0 8 -4 15 -8 15 -5 0 -9
-7 -9 -15z"/>
<path d="M2868 3353 c-28 -3 -38 -9 -38 -21 0 -21 31 -72 79 -132 67 -84 66
-79 67 -275 1 -99 5 -241 9 -315 l7 -136 -78 -23 c-44 -13 -101 -31 -129 -39
-35 -12 -82 -16 -157 -14 -60 1 -108 -1 -108 -4 0 -11 43 -68 75 -99 42 -43
122 -98 170 -118 44 -18 140 -17 188 2 16 6 32 11 36 11 9 0 8 9 16 -160 l7
-135 -33 -12 c-19 -6 -54 -17 -79 -23 -25 -6 -88 -24 -140 -40 -52 -16 -114
-34 -137 -40 -24 -6 -43 -17 -43 -24 0 -22 52 -63 132 -104 87 -44 121 -46
231 -12 31 10 60 14 62 9 8 -12 3 -265 -4 -278 -4 -6 -56 -24 -116 -40 -61
-16 -164 -46 -230 -66 -260 -82 -294 -88 -371 -66 -71 19 -143 31 -158 25 -19
-7 -8 -36 40 -106 72 -102 183 -188 243 -188 39 0 215 52 388 114 380 137 532
160 760 117 155 -30 284 -74 362 -125 82 -53 125 -76 146 -76 31 0 104 40 124
69 37 51 28 83 -49 181 -73 93 -119 118 -265 144 -16 3 -39 8 -51 10 -44 9
-148 20 -279 30 -22 2 -104 4 -181 5 l-142 1 3 53 c7 135 18 223 29 234 17 19
128 44 174 39 91 -9 181 66 162 135 -10 34 -81 100 -124 115 -31 11 -113 10
-173 -1 -23 -4 -33 -2 -34 7 0 7 -1 56 -1 108 0 113 9 175 25 188 23 18 145
44 188 40 50 -5 70 10 100 75 26 58 25 121 -3 147 -52 48 -99 64 -190 63 -74
0 -88 2 -89 16 -6 70 21 287 46 373 16 54 12 115 -9 155 -22 43 -112 130 -157
154 -44 22 -199 59 -239 57 -14 -1 -42 -3 -62 -5z"/>
<path d="M5427 3339 c7 -7 15 -10 18 -7 3 3 -2 9 -12 12 -14 6 -15 5 -6 -5z"/>
<path d="M5501 3330 c-10 -88 -10 -88 10 -93 12 -3 19 0 19 10 0 8 -4 12 -9 8
-6 -3 -12 17 -14 47 -2 29 -5 42 -6 28z"/>
<path d="M5406 3327 c3 -10 9 -15 12 -12 3 3 0 11 -7 18 -10 9 -11 8 -5 -6z"/>
<path d="M6008 3313 c9 -4 10 -9 2 -18 -8 -9 -6 -14 5 -19 10 -3 13 -2 10 5
-4 5 -2 15 4 22 7 10 4 13 -12 14 -12 0 -16 -1 -9 -4z"/>
<path d="M6005 3250 c2 -27 10 -33 12 -10 1 11 -2 22 -6 24 -4 3 -7 -4 -6 -14z"/>
<path d="M5426 3248 c3 -5 10 -6 15 -3 13 9 11 12 -6 12 -8 0 -12 -4 -9 -9z"/>
<path d="M5390 3210 c0 -16 2 -30 4 -30 2 0 6 14 8 30 3 17 1 30 -4 30 -4 0
-8 -13 -8 -30z"/>
<path d="M101 3180 c0 -8 4 -24 9 -35 l9 -20 0 20 c0 11 -4 27 -9 35 -9 13
-10 13 -9 0z"/>
<path d="M5385 3160 c-4 -6 -5 -14 -2 -16 3 -3 1 -19 -4 -37 -10 -34 1 -26 18
14 12 28 2 61 -12 39z"/>
<path d="M5385 3072 c-5 -4 -15 -14 -22 -22 -10 -13 -8 -16 10 -17 17 -2 19 0
7 7 -13 8 -8 14 11 12 3 -1 6 6 6 14 0 8 -1 14 -1 14 -1 0 -5 -4 -11 -8z"/>
<path d="M113 3020 c1 -11 5 -20 9 -20 4 0 8 9 8 20 0 11 -4 20 -9 20 -6 0 -9
-9 -8 -20z"/>
<path d="M5360 2990 c0 -5 5 -10 11 -10 5 0 7 5 4 10 -3 6 -8 10 -11 10 -2 0
-4 -4 -4 -10z"/>
<path d="M5346 2955 c-3 -8 -1 -15 4 -15 13 0 22 18 11 24 -5 3 -11 -1 -15 -9z"/>
<path d="M2333 2908 c-2 -5 0 -8 6 -8 15 0 50 -73 55 -111 4 -41 -14 -91 -81
-224 -30 -60 -63 -137 -73 -171 l-18 -61 37 2 c20 1 49 7 64 13 16 7 39 9 52
6 41 -10 121 34 181 100 87 96 126 166 131 239 4 55 2 66 -20 95 -41 55 -102
95 -160 106 -12 2 -33 7 -47 11 -38 9 -121 11 -127 3z"/>
<path d="M5246 2895 c-3 -9 -6 -22 -5 -28 0 -7 5 -1 10 12 5 13 8 26 5 28 -2
2 -6 -3 -10 -12z"/>
<path d="M5343 2903 c-7 -2 -13 -15 -13 -27 0 -12 -6 -28 -12 -36 -11 -12 -10
-12 3 -2 9 6 19 9 22 6 3 -4 4 6 1 21 -2 14 -1 24 4 21 5 -3 9 1 9 9 0 8 -1
15 -1 14 -1 0 -7 -3 -13 -6z"/>
<path d="M5446 2863 c-6 -14 -5 -15 5 -6 7 7 10 15 7 18 -3 3 -9 -2 -12 -12z"/>
<path d="M5235 2841 c-3 -5 -2 -12 3 -15 5 -3 9 1 9 9 0 17 -3 19 -12 6z"/>
<path d="M5296 2771 c-3 -5 1 -11 9 -14 9 -4 12 -1 8 9 -6 16 -10 17 -17 5z"/>
<path d="M5285 2710 c3 -5 8 -10 11 -10 2 0 4 5 4 10 0 6 -5 10 -11 10 -5 0
-7 -4 -4 -10z"/>
<path d="M5303 2675 c0 -8 4 -12 9 -9 5 3 6 10 3 15 -9 13 -12 11 -12 -6z"/>
<path d="M5089 2483 c-13 -16 -12 -17 4 -4 16 13 21 21 13 21 -2 0 -10 -8 -17
-17z"/>
<path d="M5320 2449 c0 -5 5 -7 10 -4 6 3 10 8 10 11 0 2 -4 4 -10 4 -5 0 -10
-5 -10 -11z"/>
<path d="M5002 2364 c-7 -8 -8 -14 -3 -14 10 0 25 19 20 25 -2 1 -10 -3 -17
-11z"/>
<path d="M241 2330 c0 -8 6 -28 14 -45 l14 -30 -6 30 c-7 38 -22 68 -22 45z"/>
<path d="M230 2065 c0 -10 70 -145 116 -222 25 -43 61 -108 80 -145 18 -36 38
-69 43 -73 6 -3 18 -21 27 -40 8 -18 41 -60 72 -92 31 -32 83 -87 115 -122 72
-80 75 -72 4 11 -29 35 -79 100 -111 146 -32 45 -62 82 -67 82 -6 0 -7 5 -4
10 3 6 2 10 -2 10 -5 0 -13 8 -18 19 -38 71 -58 103 -82 130 -16 16 -59 89
-96 161 -61 116 -77 142 -77 125z"/>
<path d="M295 1997 c26 -74 83 -177 97 -177 5 0 8 3 6 8 -2 4 -9 18 -15 32
-56 125 -94 200 -102 200 -5 0 1 -28 14 -63z"/>
<path d="M356 2037 c3 -10 9 -15 12 -12 3 3 0 11 -7 18 -10 9 -11 8 -5 -6z"/>
<path d="M437 1887 c-3 -7 1 -21 9 -32 12 -17 14 -17 14 -2 0 9 -4 17 -10 17
-5 0 -7 7 -4 15 4 8 4 15 1 15 -3 0 -7 -6 -10 -13z"/>
<path d="M5201 1777 c-13 -21 -12 -21 5 -5 10 10 16 20 13 22 -3 3 -11 -5 -18
-17z"/>
<path d="M3267 1149 c7 -7 15 -10 18 -7 3 3 -2 9 -12 12 -14 6 -15 5 -6 -5z"/>
<path d="M4305 1070 c-3 -6 1 -7 9 -4 18 7 21 14 7 14 -6 0 -13 -4 -16 -10z"/>
<path d="M3995 820 c-3 -5 -1 -10 4 -10 6 0 11 5 11 10 0 6 -2 10 -4 10 -3 0
-8 -4 -11 -10z"/>
<path d="M4270 755 c0 -8 7 -15 16 -15 14 0 14 3 4 15 -7 8 -14 15 -16 15 -2
0 -4 -7 -4 -15z"/>
<path d="M3170 753 c0 -5 34 -8 75 -8 41 -1 75 3 75 7 0 4 -34 8 -75 8 -41 0
-75 -3 -75 -7z"/>
<path d="M3330 748 c0 -4 21 -8 48 -7 52 1 48 6 -10 11 -21 2 -38 0 -38 -4z"/>
<path d="M4225 741 c-3 -5 -2 -12 3 -15 5 -3 9 1 9 9 0 17 -3 19 -12 6z"/>
<path d="M4115 721 c4 -8 -115 -53 -131 -50 -5 1 -11 0 -14 -1 -3 -1 -12 -3
-20 -6 -8 -2 -31 -8 -50 -13 -34 -10 -33 -10 10 -5 65 7 111 17 151 32 15 6
30 8 35 4 4 -4 4 -1 -1 7 -6 11 -3 13 13 9 12 -4 20 -2 17 2 -3 5 3 10 12 12
15 3 14 5 -5 10 -12 3 -20 3 -17 -1z"/>
<path d="M4255 715 c-25 -12 -26 -14 -5 -9 14 4 29 10 35 15 12 12 5 11 -30
-6z"/>
<path d="M4170 709 c0 -5 5 -7 10 -4 6 3 10 8 10 11 0 2 -4 4 -10 4 -5 0 -10
-5 -10 -11z"/>
<path d="M3270 688 c0 -4 21 -8 47 -8 25 0 44 2 41 5 -8 9 -88 12 -88 3z"/>
<path d="M3198 683 c6 -2 18 -2 25 0 6 3 1 5 -13 5 -14 0 -19 -2 -12 -5z"/>
<path d="M3308 653 c7 -3 16 -2 19 1 4 3 -2 6 -13 5 -11 0 -14 -3 -6 -6z"/>
</g>
</svg>
